<svg xmlns="http://www.w3.org/2000/svg" width="98" height="29" fill="none" viewBox="0 0 98 29">
  <path fill="#fff" d="M.886 11.775a.702.702 0 0 1-.712-.689.702.702 0 0 1 .689-.712c3.78-.061 6.584 2.369 9.093 4.544.704.61 1.386 1.201 2.035 1.688.567.425 1.05.785 1.537 1.019.453.218.943.337 1.58.32h.035c.618.016 1.098-.1 1.544-.311.483-.229.957-.577 1.511-.988.673-.499 1.368-1.103 2.09-1.728 2.508-2.174 5.307-4.601 9.083-4.543 3.776-.056 6.576 2.371 9.083 4.543.722.625 1.417 1.23 2.09 1.728.555.411 1.03.761 1.511.988.446.21.928.326 1.548.31h.037c.634.017 1.122-.103 1.575-.32.487-.233.97-.593 1.538-1.018.648-.487 1.33-1.077 2.034-1.688 2.507-2.174 5.307-4.601 9.083-4.544 3.776-.055 6.575 2.372 9.083 4.544.704.61 1.386 1.201 2.034 1.688.568.425 1.05.785 1.538 1.019.453.218.943.337 1.579.32h.038c.618.016 1.098-.1 1.544-.311.483-.229.957-.577 1.51-.988.674-.499 1.37-1.103 2.091-1.728 2.507-2.174 5.307-4.601 9.083-4.543 3.775-.056 6.575 2.371 9.082 4.543.722.625 1.418 1.23 2.09 1.728a.7.7 0 0 1-.834 1.126c-.717-.532-1.431-1.152-2.173-1.795-2.32-2.01-4.91-4.257-8.155-4.205h-.023c-3.245-.053-5.836 2.193-8.155 4.204-.74.643-1.456 1.264-2.173 1.796-.618.459-1.15.849-1.748 1.13a4.6 4.6 0 0 1-2.162.442c-.873.021-1.557-.15-2.2-.459-.61-.293-1.146-.692-1.772-1.16-.703-.528-1.395-1.127-2.112-1.749-2.319-2.009-4.91-4.256-8.155-4.204h-.022c-3.245-.053-5.836 2.193-8.155 4.204-.717.623-1.409 1.222-2.112 1.748-.627.47-1.16.868-1.773 1.161-.64.307-1.326.48-2.199.459a4.6 4.6 0 0 1-2.162-.443c-.6-.283-1.13-.67-1.748-1.129-.717-.532-1.431-1.152-2.173-1.795-2.32-2.01-4.91-4.257-8.155-4.205h-.023c-3.245-.053-5.836 2.193-8.155 4.204-.74.643-1.456 1.264-2.173 1.796-.619.459-1.15.849-1.748 1.13a4.6 4.6 0 0 1-2.162.442c-.873.021-1.557-.15-2.2-.459-.61-.293-1.146-.692-1.772-1.16-.703-.528-1.395-1.127-2.112-1.749-2.319-2.009-4.91-4.256-8.155-4.204l.005.003Zm90.661 4.33a.7.7 0 1 1-.553 1.285 4.954 4.954 0 0 0-1.91-.414.859.859 0 0 1-.098.01c-3.33.116-3.444 3.67-3.551 7.01-.007.23-.014.46-.023.668a.693.693 0 0 1-.007.123 4.077 4.077 0 0 1-.945 2.09 4.293 4.293 0 0 1-1.864 1.244c-.699.24-1.453.31-2.167.203a3.956 3.956 0 0 1-2.278-1.151c-.866-.894-1.21-2.049-1.111-3.235.093-1.135.599-2.301 1.444-3.28a6.69 6.69 0 0 1 .41-.434c.807-.781 1.904-1.537 3.112-2.207a26.128 26.128 0 0 1 4.14-1.834 22.735 22.735 0 0 1 1.373-.42c.29-.077.839-.191 1.544-.186.703.005 1.566.13 2.488.53l-.004-.001Zm-6.684 2.07a23.89 23.89 0 0 0-2.18 1.065c-1.107.615-2.101 1.297-2.816 1.99a5.296 5.296 0 0 0-.327.345c-.646.75-1.033 1.63-1.103 2.479-.065.798.156 1.562.717 2.142.058.06.119.117.182.172.357.307.81.495 1.293.568.5.073 1.026.026 1.515-.143.48-.166.92-.443 1.256-.833a2.68 2.68 0 0 0 .61-1.355c.01-.231.017-.444.024-.655.066-2.057.133-4.181.827-5.776l.002.002Zm-22.88-2.07a.7.7 0 1 1-.553 1.285 4.953 4.953 0 0 0-1.91-.414.859.859 0 0 1-.098.01c-3.33.116-3.443 3.67-3.55 7.01-.008.23-.014.46-.023.668a.693.693 0 0 1-.007.123 4.077 4.077 0 0 1-.945 2.09 4.293 4.293 0 0 1-1.864 1.244c-.7.24-1.453.31-2.168.203a3.956 3.956 0 0 1-2.277-1.151c-.866-.894-1.21-2.049-1.112-3.235.094-1.135.6-2.301 1.444-3.28.13-.149.266-.295.41-.434.808-.781 1.904-1.537 3.113-2.207a26.129 26.129 0 0 1 4.139-1.834 22.722 22.722 0 0 1 1.374-.42 5.94 5.94 0 0 1 1.544-.186 6.34 6.34 0 0 1 2.487.53l-.003-.001Zm-6.683 2.07c-.744.318-1.483.678-2.18 1.065-1.107.615-2.102 1.297-2.816 1.99a5.296 5.296 0 0 0-.327.345c-.646.75-1.033 1.63-1.104 2.479-.064.798.157 1.562.717 2.142.058.06.12.117.183.172.356.307.81.495 1.293.568.5.073 1.026.026 1.515-.143a2.89 2.89 0 0 0 1.255-.833 2.68 2.68 0 0 0 .611-1.355c.01-.231.017-.444.023-.655.067-2.057.134-4.181.827-5.776l.003.002Zm20.846-7.115a.699.699 0 1 1 .553 1.285c-.922.4-1.785.525-2.487.53a6.01 6.01 0 0 1-1.544-.185 23.363 23.363 0 0 1-1.374-.42 26.053 26.053 0 0 1-4.139-1.834c-1.209-.671-2.305-1.426-3.113-2.208a6.912 6.912 0 0 1-.41-.434c-.843-.978-1.349-2.144-1.444-3.28-.098-1.186.247-2.34 1.112-3.234A3.947 3.947 0 0 1 65.577.13a4.625 4.625 0 0 1 2.168.201c.706.243 1.36.66 1.864 1.244.478.556.82 1.255.944 2.09a.765.765 0 0 1 .008.124c.007.205.014.437.023.669.107 3.34.22 6.893 3.55 7.009a.876.876 0 0 1 .099.01 4.954 4.954 0 0 0 1.91-.415l.003-.002Zm-8.31-1.848c.695.387 1.435.745 2.18 1.065-.694-1.594-.763-3.72-.827-5.777l-.023-.655a2.68 2.68 0 0 0-.611-1.354 2.894 2.894 0 0 0-1.256-.833 3.254 3.254 0 0 0-1.515-.143c-.484.072-.936.26-1.293.568a2.69 2.69 0 0 0-.182.172c-.56.58-.784 1.344-.717 2.142.07.848.457 1.728 1.104 2.478.102.118.21.234.326.347.715.694 1.71 1.373 2.816 1.988l-.002.002Zm-20.23 1.848a.699.699 0 1 1 .553 1.285c-.922.4-1.785.525-2.487.53a6.011 6.011 0 0 1-1.545-.185 23.375 23.375 0 0 1-1.374-.42 26.052 26.052 0 0 1-4.139-1.834c-1.208-.671-2.304-1.426-3.113-2.208a6.912 6.912 0 0 1-.41-.434c-.843-.978-1.348-2.144-1.443-3.28-.099-1.186.246-2.34 1.111-3.234A3.947 3.947 0 0 1 37.037.13a4.625 4.625 0 0 1 2.168.201c.707.243 1.36.66 1.864 1.244.478.556.82 1.255.945 2.09a.777.777 0 0 1 .007.124c.008.205.014.437.023.669.107 3.34.221 6.893 3.55 7.009a.876.876 0 0 1 .1.01 4.954 4.954 0 0 0 1.909-.415l.003-.002Zm-8.31-1.848c.695.387 1.435.745 2.18 1.065-.695-1.594-.763-3.72-.828-5.777l-.023-.655c-.086-.548-.305-1-.61-1.354a2.895 2.895 0 0 0-1.256-.833 3.254 3.254 0 0 0-1.515-.143c-.484.072-.937.26-1.293.568a2.716 2.716 0 0 0-.183.172c-.56.58-.784 1.344-.717 2.142.071.848.457 1.728 1.104 2.478.102.118.211.234.327.347.714.694 1.709 1.373 2.816 1.988l-.003.002Zm-6.104 6.894a.7.7 0 1 1-.554 1.284 4.957 4.957 0 0 0-1.91-.414.837.837 0 0 1-.098.01c-3.33.116-3.443 3.67-3.55 7.01-.008.23-.014.46-.023.668a.702.702 0 0 1-.008.123 4.077 4.077 0 0 1-.944 2.09 4.292 4.292 0 0 1-1.864 1.244c-.7.24-1.453.31-2.168.203a3.955 3.955 0 0 1-2.277-1.151c-.866-.894-1.21-2.049-1.112-3.235.094-1.135.6-2.301 1.444-3.28.13-.149.266-.295.41-.434.808-.781 1.904-1.537 3.113-2.207a26.138 26.138 0 0 1 4.139-1.834 22.634 22.634 0 0 1 1.374-.42 5.94 5.94 0 0 1 1.544-.186c.703.005 1.566.13 2.488.53l-.004-.001Zm-6.684 2.07a23.85 23.85 0 0 0-2.18 1.064c-1.107.615-2.102 1.297-2.816 1.989a5.322 5.322 0 0 0-.327.346c-.646.75-1.033 1.63-1.104 2.479-.064.798.157 1.562.717 2.142.058.06.12.117.183.172.356.307.81.495 1.293.567.5.074 1.026.027 1.515-.142a2.89 2.89 0 0 0 1.255-.833c.306-.355.525-.807.611-1.355.01-.231.017-.445.023-.655.067-2.057.134-4.181.827-5.776l.003.002Zm-7.82-7.116a.699.699 0 1 1 .554 1.285c-.922.4-1.786.525-2.488.53a6.006 6.006 0 0 1-1.544-.185 23.58 23.58 0 0 1-1.374-.42 26.061 26.061 0 0 1-4.139-1.834C8.49 9.765 7.392 9.01 6.584 8.228a6.916 6.916 0 0 1-.41-.434c-.843-.978-1.349-2.144-1.443-3.28-.099-1.186.246-2.34 1.111-3.234A3.947 3.947 0 0 1 8.12.13a4.625 4.625 0 0 1 2.168.201c.707.243 1.36.66 1.864 1.244.478.556.82 1.255.945 2.09a.777.777 0 0 1 .007.123c.007.206.014.438.023.67.107 3.34.221 6.893 3.55 7.009a.831.831 0 0 1 .099.01 4.957 4.957 0 0 0 1.91-.415l.003-.002Zm-8.31-1.848a24.03 24.03 0 0 0 2.18 1.065c-.694-1.594-.762-3.72-.827-5.777l-.023-.655c-.086-.548-.306-1-.61-1.354a2.894 2.894 0 0 0-1.257-.833 3.254 3.254 0 0 0-1.514-.143c-.485.072-.937.26-1.293.568a2.697 2.697 0 0 0-.183.172c-.56.58-.784 1.344-.717 2.142.07.848.457 1.728 1.104 2.478.102.118.21.234.326.346.715.695 1.71 1.374 2.816 1.99h-.002Z"/>
</svg>
