<svg xmlns="http://www.w3.org/2000/svg" width="26" height="99" fill="none" viewBox="0 0 26 99">
  <path fill="#fff" d="M13.29 53.956a75.667 75.667 0 0 0-2.082-2.858c-.019-.023-.035-.048-.052-.072-1.264-1.663-2.516-3.344-3.36-5.211-.03-.057-.057-.116-.084-.173-.52-.966-1.399-1.275-2.216-1.56-.211-.075-.42-.148-.618-.228-1.222-.49-2.397-1.389-3.141-2.55-.66-1.031-.988-2.264-.73-3.605.048-.25.116-.489.201-.714.316-.831.869-1.471 1.562-1.864a3.478 3.478 0 0 1 2.39-.373c.226.044.454.108.684.195 1.255.477 2.088 1.413 2.579 2.533.56 1.277.664 2.797.433 4.116l-.084.453c-.178.932-.364 1.91.159 3.033l.065.134c.008.015.017.03.023.047.047.104.096.208.146.312-.431-5.321 2.485-11.283 5.01-15.497 1.932-4.124.769-7.25-1.154-10.165a75.95 75.95 0 0 0-2.082-2.857.753.753 0 0 1-.029-.042c-1.27-1.673-2.533-3.363-3.383-5.241a3.404 3.404 0 0 1-.083-.173c-.521-.966-1.4-1.275-2.216-1.56-.212-.075-.42-.148-.618-.228-1.223-.49-2.398-1.39-3.142-2.55-.66-1.031-.987-2.264-.73-3.605a4.24 4.24 0 0 1 .202-.714c.315-.831.868-1.471 1.562-1.864a3.478 3.478 0 0 1 2.39-.373c.225.044.454.108.684.195 1.255.477 2.088 1.412 2.578 2.533.56 1.277.664 2.797.433 4.116l-.083.453c-.178.932-.364 1.91.158 3.032l.065.135c.009.015.017.03.024.047.794 1.757 2.006 3.38 3.227 4.987a.745.745 0 0 1 .035.043c.099.129.202.267.31.41 2.253 2.97 4.41 5.93 4.213 9.72l.029-.043c.267-.403.497-.75.63-.956.034-.06.069-.12.104-.177.534-.97.31-1.878.103-2.723a16.99 16.99 0 0 1-.15-.64c-.259-1.29-.148-2.764.42-4.024.502-1.116 1.355-2.063 2.619-2.582.243-.1.48-.174.712-.225.865-.19 1.703-.076 2.412.289.71.366 1.283.983 1.618 1.798.09.22.16.448.213.682.287 1.308-.043 2.516-.711 3.539-.764 1.166-1.98 2.084-3.214 2.615-.05.022-.238.1-.427.177-.871.357-1.785.734-2.438 1.77-.034.059-.07.117-.107.176-.01.016-.018.03-.03.046-.204.32-.405.622-.638.975-.613.922-1.445 2.173-2.325 3.64l-.057.12a.703.703 0 0 1-.114.168c-3.264 5.5-7.047 13.818-2.903 19.29.1.13.202.267.31.411 2.224 2.934 4.358 5.858 4.22 9.584l.056-.09.324-.504.104-.178c.535-.97.311-1.878.103-2.723-.057-.23-.113-.457-.15-.64-.258-1.29-.147-2.764.42-4.024.502-1.116 1.355-2.063 2.619-2.582.243-.1.48-.174.712-.225.866-.19 1.703-.076 2.412.29.71.365 1.283.982 1.618 1.797.09.22.16.448.213.682.288 1.308-.042 2.516-.71 3.539-.765 1.166-1.981 2.084-3.215 2.615-.05.022-.238.1-.426.177-.872.358-1.786.734-2.44 1.77a4.713 4.713 0 0 1-.136.222l-.327.508a73.984 73.984 0 0 0-2.42 3.956l-.002.001a.59.59 0 0 1-.044.076c-2.975 5.288-6.398 13.417-2.662 19.332.238.378.535.722.865 1.075.642.643 1.252 1.291 1.782 1.985a11.288 11.288 0 0 1 .514.729c.639.992 1.09 2.079 1.231 3.357.14 1.258-.026 2.688-.62 4.37-.04.113-.082.247-.125.389-.131.418-.276.875-.483 1.206-.221.354-.542.68-1.008.843-.44.155-.978.15-1.627-.141a.879.879 0 0 1-.107-.054c-.19-.12-.35-.242-.483-.366-.521-.484-.68-1.003-.68-1.451 0-.449.169-.813.293-1.011.053-.084.107-.153.143-.191 1.148-1.239 1.92-2.546 2.234-3.785.285-1.123.188-2.19-.353-3.084a15.99 15.99 0 0 0-.36-.449c-.317-.372-.633-.7-.93-1.01a34.646 34.646 0 0 1-.39-.41l-.683-.678c-1.584-1.56-3.244-3.197-4.277-5.48a5.342 5.342 0 0 1-.083-.174c-.521-.966-1.4-1.275-2.216-1.56-.212-.074-.42-.148-.618-.227-1.223-.491-2.398-1.39-3.141-2.55-.66-1.032-.988-2.265-.731-3.606.049-.25.116-.488.202-.713.315-.832.868-1.472 1.562-1.865a3.477 3.477 0 0 1 2.39-.372c.225.043.454.107.684.194 1.255.478 2.088 1.413 2.578 2.534.56 1.276.664 2.796.434 4.115l-.084.454c-.178.932-.364 1.91.158 3.032.022.043.044.09.065.134.009.016.017.03.024.047.353.781.798 1.489 1.293 2.145-1.54-5.924 1.43-12.763 4.046-17.414l.003-.007c2.048-4.212.88-7.385-1.07-10.34l-.004.003ZM18.7 22.16c.109.444.222.9.266 1.38.465-.278.945-.476 1.418-.67.092-.036.183-.075.406-.17 1.013-.437 2.007-1.182 2.62-2.118.484-.739.725-1.6.523-2.52a2.859 2.859 0 0 0-.14-.458 2.152 2.152 0 0 0-.992-1.116c-.433-.223-.959-.29-1.515-.168a3.005 3.005 0 0 0-.486.152c-.914.374-1.535 1.07-1.905 1.893-.449.994-.532 2.174-.324 3.212.043.218.089.4.134.582l-.005.001ZM5.938 42.818c.432.152.877.308 1.302.535.02-.543.118-1.052.213-1.553l.08-.433c.189-1.09.108-2.33-.34-3.354-.355-.808-.945-1.48-1.823-1.812a2.893 2.893 0 0 0-.463-.133 2.147 2.147 0 0 0-1.477.22c-.425.242-.767.643-.969 1.173a2.86 2.86 0 0 0-.138.493c-.186.97.057 1.871.543 2.629.59.92 1.528 1.638 2.511 2.03.183.075.37.14.561.205Zm-.27-34.043c.431.151.876.307 1.302.534.02-.543.117-1.052.213-1.552.023-.126.047-.25.078-.433.19-1.09.11-2.33-.34-3.355-.353-.807-.943-1.48-1.821-1.812a2.901 2.901 0 0 0-.464-.133 2.147 2.147 0 0 0-1.476.22c-.426.242-.768.643-.97 1.173a2.8 2.8 0 0 0-.137.493c-.187.971.056 1.872.542 2.63.59.92 1.529 1.637 2.512 2.03.182.074.37.14.56.205Zm10.287 83.268c-.427 1.306-1.25 2.64-2.41 3.888a.58.58 0 0 0-.088.297c0 .128.059.288.255.469.069.064.151.128.249.191.28.123.477.137.614.087.126-.043.229-.158.31-.287.117-.19.235-.56.34-.897.05-.153.095-.3.143-.435.447-1.269.62-2.357.585-3.315l.002.002Zm-2.41 3.888-.008.008c-.004.005.005-.005.009-.008Zm-7.609-18.8c.432.152.877.308 1.302.535.02-.543.118-1.052.213-1.552.023-.126.047-.25.079-.434.19-1.09.109-2.33-.34-3.354-.354-.808-.944-1.48-1.822-1.812a2.902 2.902 0 0 0-.463-.133 2.147 2.147 0 0 0-1.477.22c-.425.242-.767.643-.97 1.173a2.957 2.957 0 0 0-.137.493c-.186.971.057 1.872.543 2.629.59.92 1.528 1.638 2.511 2.03.183.075.37.14.561.206Zm12.762-20.658c.109.444.221.9.266 1.381.465-.28.945-.477 1.418-.67.092-.037.182-.076.406-.171 1.013-.437 2.007-1.182 2.62-2.117.484-.74.725-1.601.523-2.522a2.835 2.835 0 0 0-.14-.457 2.152 2.152 0 0 0-.992-1.115c-.433-.224-.96-.29-1.515-.168a3.012 3.012 0 0 0-.486.15c-.914.376-1.535 1.07-1.905 1.894-.449.994-.533 2.174-.324 3.212.043.218.089.4.134.583h-.005Z"/>
</svg>
