<svg xmlns="http://www.w3.org/2000/svg" width="23" height="23" fill="none" viewBox="0 0 23 23">
  <path fill="#fff" d="M11.801.6C8.759.6 8.378.613 7.183.668c-1.192.054-2.006.243-2.719.52A5.484 5.484 0 0 0 2.48 2.479a5.498 5.498 0 0 0-1.292 1.984C.91 5.176.72 5.99.668 7.182.613 8.376.6 8.758.6 11.8c0 3.042.014 3.422.068 4.617.054 1.192.243 2.006.52 2.718A5.488 5.488 0 0 0 2.48 21.12a5.485 5.485 0 0 0 1.983 1.293c.713.277 1.527.466 2.719.52 1.195.055 1.576.068 4.618.068 3.042 0 3.422-.013 4.617-.067 1.192-.055 2.007-.244 2.72-.52a5.48 5.48 0 0 0 1.982-1.294 5.498 5.498 0 0 0 1.293-1.983c.275-.713.464-1.527.52-2.719.054-1.194.068-1.575.068-4.617s-.014-3.423-.068-4.618c-.056-1.192-.245-2.006-.52-2.718a5.497 5.497 0 0 0-1.293-1.985 5.473 5.473 0 0 0-1.983-1.291c-.714-.277-1.528-.466-2.72-.52C15.22.613 14.84.6 11.796.6h.004Zm-1.005 2.018h1.005c2.99 0 3.345.011 4.526.065 1.092.05 1.684.232 2.08.385a3.46 3.46 0 0 1 1.286.838c.392.392.635.765.838 1.288.154.394.337.987.386 2.08.054 1.18.066 1.534.066 4.523 0 2.99-.012 3.344-.066 4.525-.05 1.092-.232 1.685-.386 2.079a3.462 3.462 0 0 1-.838 1.287 3.464 3.464 0 0 1-1.287.837c-.394.154-.987.336-2.08.386-1.18.054-1.535.066-4.525.066s-3.345-.012-4.526-.066c-1.092-.05-1.684-.233-2.08-.386a3.47 3.47 0 0 1-1.287-.838 3.471 3.471 0 0 1-.839-1.287c-.153-.394-.336-.987-.385-2.079-.054-1.18-.065-1.535-.065-4.526 0-2.991.011-3.344.065-4.525.05-1.092.232-1.684.385-2.08a3.47 3.47 0 0 1 .839-1.287 3.476 3.476 0 0 1 1.288-.838c.394-.154.987-.336 2.08-.386 1.032-.047 1.433-.061 3.52-.063v.002Zm6.984 1.86a1.344 1.344 0 1 0-.001 2.689 1.344 1.344 0 0 0 0-2.69v.001Zm-5.98 1.57a5.752 5.752 0 1 0 0 11.504 5.752 5.752 0 0 0 0-11.504Zm0 2.019a3.733 3.733 0 1 1 0 7.466 3.733 3.733 0 0 1 0-7.466Z"/>
</svg>
