<svg xmlns="http://www.w3.org/2000/svg" width="191" height="72" fill="none" viewBox="0 0 191 72">
  <path fill="#fff" d="M61.877 10.464c1.207 11.59-5.927 18.719-6.016 18.804-4.202 4.2-11.262 5.063-15.515 5.173 3.26-3.398 8.24-9.744 8.24-16.812.003-.199.003-2.198-.684-5.042 3.671-1.801 9.777-2.977 13.975-2.123Zm-16.315 7.141c0 5.942-4.386 11.544-7.317 14.63-.097-4.71-1.062-12.717-6.06-17.715-.139-.142-1.553-1.554-4.05-3.079 1.321-3.87 4.807-9.018 8.383-11.389 9.051 7.343 9.047 17.43 9.044 17.553Zm-34.337-6.98c11.58-1.204 18.717 5.927 18.806 6.015 4.2 4.203 5.061 11.265 5.172 15.518-3.397-3.26-9.744-8.24-16.809-8.24-.206.004-2.203.005-5.041.689-1.804-3.673-2.981-9.78-2.128-13.982ZM.815 35.983c7.368-9.08 17.463-9.03 17.553-9.042 5.941 0 11.543 4.387 14.629 7.316-4.71.097-12.717 1.061-17.715 6.06-.142.137-1.556 1.552-3.08 4.048-3.874-1.32-9.02-4.807-11.387-8.382Zm10.572 25.294c-1.207-11.59 5.927-18.72 6.016-18.805 4.202-4.202 11.263-5.064 15.517-5.173-3.262 3.397-8.243 9.743-8.243 16.811-.003.199-.003 2.198.685 5.042-3.67 1.804-9.778 2.98-13.975 2.125Zm25.358 10.41c-9.048-7.342-9.045-17.428-9.043-17.551 0-5.942 4.387-11.544 7.317-14.63.097 4.71 1.062 12.717 6.06 17.713.138.142 1.542 1.56 4.047 3.087-1.325 3.871-4.808 9.013-8.381 11.381Zm25.294-10.57c-11.585 1.205-18.718-5.93-18.806-6.018-4.2-4.2-5.06-11.263-5.172-15.517 3.398 3.261 9.744 8.24 16.81 8.24h.083c.443 0 2.342-.043 4.962-.678 1.803 3.674 2.975 9.773 2.123 13.972Zm10.41-25.36c-7.368 9.08-17.458 9.058-17.552 9.043-5.947 0-11.557-4.395-14.64-7.326 4.702-.091 12.709-1.033 17.725-6.05.142-.137 1.557-1.552 3.081-4.048 3.873 1.32 9.019 4.807 11.387 8.381Zm17.173-23.745c.964 0 1.697.116 2.198.348a7.25 7.25 0 0 1 1.33.722c.231.135.414.241.55.318.154.058.298.087.433.087.193 0 .328-.106.405-.318.096-.212.174-.53.231-.954h.665c-.019.328-.048.723-.086 1.185-.02.444-.039 1.041-.058 1.793v2.92h-.665a8.353 8.353 0 0 0-.608-2.66 5.068 5.068 0 0 0-1.532-2.082c-.655-.54-1.523-.81-2.602-.81-1.022 0-1.87.31-2.545.926-.655.617-.983 1.427-.983 2.429 0 .867.222 1.6.665 2.198.443.578 1.031 1.108 1.764 1.59a611.6 611.6 0 0 1 2.429 1.503 26.463 26.463 0 0 1 2.66 1.851c.79.598 1.407 1.263 1.85 1.995.463.733.694 1.62.694 2.66 0 1.234-.28 2.256-.838 3.065a5.162 5.162 0 0 1-2.226 1.822c-.926.405-1.947.607-3.066.607-1.021 0-1.83-.115-2.428-.347a10.434 10.434 0 0 1-1.533-.723c-.424-.27-.752-.404-.983-.404-.193 0-.337.105-.434.318-.077.212-.144.53-.202.954h-.665c.038-.405.058-.877.058-1.417.019-.56.029-1.282.029-2.169.019-.886.028-2.005.028-3.354h.666c.077 1.157.289 2.236.636 3.239.366 1.002.915 1.812 1.648 2.429.752.597 1.744.896 2.978.896.636 0 1.234-.125 1.793-.376a3.382 3.382 0 0 0 1.417-1.243c.366-.579.549-1.32.549-2.227 0-.79-.193-1.475-.578-2.053-.367-.597-.887-1.147-1.562-1.648a24.036 24.036 0 0 0-2.37-1.59 38.877 38.877 0 0 1-2.545-1.706 7.471 7.471 0 0 1-1.909-1.995c-.462-.771-.694-1.697-.694-2.776 0-1.138.251-2.072.752-2.805a4.56 4.56 0 0 1 2.024-1.648 6.508 6.508 0 0 1 2.66-.55Zm16.078 5.494c1.697 0 3.017.52 3.962 1.562.963 1.021 1.445 2.621 1.445 4.8H100.9l-.029-.55h7.461c.038-.944-.039-1.812-.232-2.602-.193-.81-.501-1.456-.925-1.937-.405-.482-.935-.723-1.59-.723-.887 0-1.677.443-2.371 1.33-.675.887-1.08 2.294-1.215 4.221l.087.116c-.039.29-.068.607-.087.954-.019.347-.029.694-.029 1.041 0 1.311.212 2.439.636 3.383.424.945.974 1.668 1.649 2.169.693.482 1.407.723 2.139.723.579 0 1.128-.087 1.648-.26a4.189 4.189 0 0 0 1.446-.926c.444-.424.829-.992 1.157-1.706l.578.232c-.212.636-.559 1.253-1.041 1.85a5.732 5.732 0 0 1-1.822 1.475c-.732.366-1.58.55-2.544.55-1.388 0-2.583-.319-3.586-.955-.983-.636-1.744-1.513-2.284-2.631-.52-1.138-.78-2.439-.78-3.904 0-1.696.27-3.151.81-4.366.539-1.234 1.3-2.178 2.283-2.834.984-.674 2.13-1.012 3.441-1.012Zm16.593 0c.521 0 .974.106 1.359.318.405.212.714.492.926.839.231.328.347.703.347 1.128 0 .482-.155.906-.463 1.272-.289.366-.684.55-1.185.55-.405 0-.762-.126-1.07-.377-.309-.27-.463-.645-.463-1.127 0-.367.096-.675.289-.926.212-.27.444-.482.694-.636-.135-.192-.337-.289-.607-.289-.598 0-1.147.183-1.648.55-.501.346-.925.8-1.272 1.358a7.528 7.528 0 0 0-.81 1.793 5.824 5.824 0 0 0-.289 1.735v6.13c0 .945.27 1.58.809 1.909.559.308 1.311.462 2.256.462v.607c-.444-.019-1.07-.038-1.88-.057a54.255 54.255 0 0 0-2.573-.058c-.656 0-1.311.019-1.966.058-.637.019-1.118.038-1.446.057v-.607c.79 0 1.349-.144 1.677-.434.347-.289.52-.838.52-1.648v-9.05c0-.868-.154-1.504-.462-1.909-.309-.424-.887-.636-1.735-.636v-.607c.617.058 1.214.087 1.793.087.559 0 1.089-.029 1.59-.087a9.08 9.08 0 0 0 1.417-.318v3.614a7.918 7.918 0 0 1 .896-1.677 5.73 5.73 0 0 1 1.446-1.445 3.189 3.189 0 0 1 1.85-.579Zm10.346 0c1.696 0 3.016.52 3.961 1.562.964 1.021 1.446 2.621 1.446 4.8h-10.207l-.029-.55h7.46c.038-.944-.039-1.812-.231-2.602-.193-.81-.502-1.456-.926-1.937-.404-.482-.935-.723-1.59-.723-.887 0-1.677.443-2.371 1.33-.675.887-1.08 2.294-1.214 4.221l.086.116c-.038.29-.067.607-.086.954-.02.347-.029.694-.029 1.041 0 1.311.212 2.439.636 3.383.424.945.973 1.668 1.648 2.169.694.482 1.407.723 2.14.723a5.18 5.18 0 0 0 1.648-.26 4.208 4.208 0 0 0 1.446-.926c.443-.424.828-.992 1.156-1.706l.578.232c-.212.636-.559 1.253-1.041 1.85a5.728 5.728 0 0 1-1.821 1.475c-.733.366-1.581.55-2.545.55-1.388 0-2.583-.319-3.585-.955-.983-.636-1.745-1.513-2.284-2.631-.521-1.138-.781-2.439-.781-3.904 0-1.696.27-3.151.81-4.366.539-1.234 1.301-2.178 2.284-2.834.983-.674 2.13-1.012 3.441-1.012Zm17.316 0c.732 0 1.339.097 1.821.29.502.192.916.462 1.244.81.366.385.626.867.78 1.445.155.578.232 1.359.232 2.342v7.72c0 .81.164 1.36.491 1.648.347.29.916.434 1.706.434v.607a55.632 55.632 0 0 0-1.503-.057 34.543 34.543 0 0 0-1.967-.058c-.636 0-1.262.019-1.879.058a48.69 48.69 0 0 0-1.359.057v-.607c.694 0 1.185-.144 1.475-.434.289-.289.433-.838.433-1.648v-8.356a8.77 8.77 0 0 0-.144-1.648c-.097-.502-.318-.906-.665-1.215-.328-.308-.839-.462-1.533-.462-.809 0-1.523.23-2.139.694-.598.462-1.07 1.098-1.417 1.908-.328.79-.492 1.677-.492 2.66v6.42c0 .809.145 1.358.434 1.647.289.29.781.434 1.475.434v.607a48.9 48.9 0 0 0-1.388-.057 28.82 28.82 0 0 0-1.851-.058c-.636 0-1.291.019-1.966.058-.675.019-1.176.038-1.504.057v-.607c.791 0 1.35-.144 1.677-.434.347-.289.521-.838.521-1.648v-9.05c0-.868-.154-1.504-.463-1.909-.308-.424-.887-.636-1.735-.636v-.607c.617.058 1.215.087 1.793.087.559 0 1.089-.029 1.59-.087a9.053 9.053 0 0 0 1.417-.318v3.412c.501-1.31 1.195-2.217 2.082-2.718.906-.52 1.851-.78 2.834-.78Zm10.834-6.824c.501 0 .934.184 1.301.55.366.366.549.8.549 1.301 0 .501-.183.935-.549 1.301-.367.366-.8.55-1.301.55a1.78 1.78 0 0 1-1.302-.55 1.779 1.779 0 0 1-.549-1.301c0-.501.183-.935.549-1.301.367-.366.8-.55 1.302-.55Zm1.503 6.911v12.52c0 .81.164 1.36.492 1.648.347.29.915.434 1.706.434v.607a55.745 55.745 0 0 0-1.504-.057 33.997 33.997 0 0 0-3.99 0c-.675.019-1.176.038-1.504.057v-.607c.791 0 1.35-.144 1.677-.434.347-.289.521-.838.521-1.648v-9.05c0-.868-.154-1.504-.463-1.909-.308-.424-.887-.636-1.735-.636v-.607c.617.058 1.215.087 1.793.087.559 0 1.089-.029 1.59-.087a9.053 9.053 0 0 0 1.417-.318Zm8.327-4.482v4.83h4.279v.577h-4.279v11.19c0 .907.164 1.543.491 1.909.328.366.781.55 1.359.55.579 0 1.08-.232 1.504-.695.424-.482.79-1.282 1.099-2.4l.578.145c-.193 1.118-.578 2.063-1.157 2.834-.559.77-1.426 1.156-2.602 1.156-.655 0-1.195-.087-1.619-.26a3.253 3.253 0 0 1-1.128-.694 3.712 3.712 0 0 1-.896-1.59c-.155-.617-.232-1.436-.232-2.458v-9.687h-2.775v-.578h2.775v-4.424c.482-.02.945-.058 1.388-.116a5.612 5.612 0 0 0 1.215-.289Zm19.012 4.8v.578c-.366.039-.704.203-1.012.492-.309.29-.598.8-.868 1.532l-4.742 12.434h-.491l-5.321-12.81c-.366-.751-.732-1.204-1.098-1.358-.347-.174-.637-.26-.868-.26v-.608c.424.058.868.106 1.33.145.463.019.964.029 1.504.029.597 0 1.224-.02 1.879-.058a196.92 196.92 0 0 0 1.88-.116v.607c-.482 0-.916.039-1.301.116-.367.058-.598.26-.694.607-.097.328.019.897.347 1.706l3.556 8.82-.173.057 3.296-8.617c.251-.636.347-1.137.289-1.503a1.063 1.063 0 0 0-.578-.868c-.347-.192-.868-.308-1.562-.347v-.578c.347.02.646.039.897.058.25 0 .491.01.723.029h.809c.444 0 .839-.01 1.186-.029.366-.02.703-.039 1.012-.058Zm-6.622 15.036-.983 2.515a7.127 7.127 0 0 1-.607 1.215 3.497 3.497 0 0 1-.636.81 2.342 2.342 0 0 1-1.099.578c-.424.116-.81.173-1.157.173a2.5 2.5 0 0 1-1.012-.202 1.633 1.633 0 0 1-.694-.607c-.173-.25-.26-.56-.26-.925 0-.463.135-.839.405-1.128.27-.27.646-.405 1.128-.405.405 0 .752.116 1.041.347.289.231.433.569.433 1.012 0 .328-.077.598-.231.81a1.658 1.658 0 0 1-.549.491.22.22 0 0 0 .086.03h.087a2.01 2.01 0 0 0 1.388-.55c.405-.347.762-.916 1.07-1.706l1.041-2.69.549.232Zm-93.387 6.066c.964 0 1.697.115 2.198.346.501.212.945.453 1.33.723.231.135.414.241.55.318.154.058.298.087.433.087.193 0 .328-.106.405-.318.096-.212.174-.53.231-.954h.665c-.019.328-.048.723-.086 1.185-.02.444-.039 1.041-.058 1.793v2.92h-.665a8.353 8.353 0 0 0-.608-2.66 5.068 5.068 0 0 0-1.532-2.082c-.655-.54-1.523-.81-2.602-.81-1.022 0-1.87.31-2.545.926-.655.617-.983 1.427-.983 2.429 0 .867.222 1.6.665 2.198.443.578 1.031 1.108 1.764 1.59.752.462 1.561.964 2.429 1.504a26.463 26.463 0 0 1 2.66 1.85c.79.598 1.407 1.263 1.85 1.995.463.733.694 1.62.694 2.66 0 1.234-.28 2.256-.838 3.065a5.162 5.162 0 0 1-2.226 1.822c-.926.405-1.947.607-3.066.607-1.021 0-1.83-.115-2.428-.347a10.434 10.434 0 0 1-1.533-.723c-.424-.27-.752-.404-.983-.404-.193 0-.337.106-.434.318-.077.212-.144.53-.202.954h-.665c.038-.405.058-.877.058-1.417.019-.56.029-1.282.029-2.169.019-.886.028-2.005.028-3.354h.666c.077 1.157.289 2.236.636 3.239.366 1.002.915 1.812 1.648 2.428.752.598 1.744.897 2.978.897.636 0 1.234-.125 1.793-.376a3.382 3.382 0 0 0 1.417-1.243c.366-.579.549-1.32.549-2.227 0-.79-.193-1.474-.578-2.053-.367-.597-.887-1.147-1.562-1.648a24.036 24.036 0 0 0-2.37-1.59 38.877 38.877 0 0 1-2.545-1.706 7.471 7.471 0 0 1-1.909-1.995c-.462-.771-.694-1.697-.694-2.776 0-1.138.251-2.072.752-2.805a4.56 4.56 0 0 1 2.024-1.648 6.508 6.508 0 0 1 2.66-.55Zm13.649 5.58v17.754c0 .829.241 1.378.723 1.648.501.29 1.186.434 2.053.434v.607a361.57 361.57 0 0 1-1.764-.087 94.123 94.123 0 0 0-2.399-.029c-.598 0-1.196.01-1.793.03l-1.33.086v-.607c.694 0 1.185-.126 1.474-.376.29-.25.434-.723.434-1.417V48.063c0-.868-.154-1.504-.463-1.909-.308-.424-.886-.636-1.734-.636v-.607c.616.058 1.214.087 1.792.087.559 0 1.089-.029 1.591-.087.52-.077.992-.183 1.416-.318Zm4.627-.087c1.021 0 1.937.28 2.747.839.809.54 1.446 1.34 1.908 2.4.482 1.06.723 2.37.723 3.932 0 1.041-.125 2.072-.376 3.094a8.992 8.992 0 0 1-1.185 2.747 6.084 6.084 0 0 1-2.053 1.966c-.829.482-1.832.723-3.008.723-.906 0-1.696-.212-2.371-.636-.655-.424-1.098-.935-1.33-1.532l.29-.405c.269.54.655.992 1.156 1.359.521.366 1.166.55 1.937.55 1.08 0 1.918-.338 2.516-1.013.598-.675 1.012-1.57 1.243-2.689.251-1.137.376-2.39.376-3.759 0-1.542-.125-2.805-.376-3.788-.25-.983-.626-1.715-1.127-2.197-.502-.482-1.118-.723-1.851-.723-.944 0-1.802.395-2.573 1.185-.771.771-1.263 1.947-1.475 3.528l-.347-.405c.212-1.638.79-2.91 1.735-3.817.964-.906 2.111-1.359 3.441-1.359Zm16.57 0c.52 0 .973.106 1.359.318.405.212.713.492.925.839.231.328.347.704.347 1.128 0 .482-.154.906-.463 1.272-.289.366-.684.55-1.185.55-.405 0-.762-.126-1.07-.377-.308-.27-.463-.645-.463-1.127 0-.367.097-.675.289-.926.213-.27.444-.481.694-.636-.135-.192-.337-.289-.607-.289-.597 0-1.147.183-1.648.55-.501.346-.925.8-1.272 1.358a7.528 7.528 0 0 0-.81 1.793 5.824 5.824 0 0 0-.289 1.735v6.13c0 .945.27 1.58.81 1.909.559.308 1.31.462 2.255.462v.607c-.443-.019-1.07-.038-1.879-.057a54.329 54.329 0 0 0-2.574-.058c-.655 0-1.311.019-1.966.058-.636.019-1.118.038-1.446.057v-.607c.79 0 1.35-.144 1.677-.434.347-.289.521-.838.521-1.648v-9.05c0-.868-.155-1.504-.463-1.909-.308-.424-.887-.636-1.735-.636v-.607c.617.058 1.215.087 1.793.087.559 0 1.089-.029 1.59-.087a9.053 9.053 0 0 0 1.417-.318v3.614a7.918 7.918 0 0 1 .896-1.677 5.73 5.73 0 0 1 1.446-1.445 3.19 3.19 0 0 1 1.851-.579Zm7.18-6.824c.501 0 .935.183 1.301.55.366.366.549.8.549 1.301 0 .501-.183.935-.549 1.301-.366.366-.8.55-1.301.55a1.78 1.78 0 0 1-1.302-.55 1.779 1.779 0 0 1-.549-1.301c0-.501.183-.935.549-1.301.367-.367.8-.55 1.302-.55Zm1.503 6.911v12.52c0 .81.164 1.36.492 1.648.347.29.915.434 1.706.434v.607a55.745 55.745 0 0 0-1.504-.057 33.997 33.997 0 0 0-3.99 0c-.675.019-1.176.038-1.504.057v-.607c.791 0 1.35-.144 1.677-.434.347-.289.521-.838.521-1.648v-9.05c0-.868-.154-1.504-.463-1.909-.308-.424-.886-.636-1.735-.636v-.607c.617.058 1.215.087 1.793.087.559 0 1.089-.029 1.59-.087a9.053 9.053 0 0 0 1.417-.318Zm13.387-.087c.732 0 1.34.097 1.822.29.501.192.915.462 1.243.81.366.385.626.867.781 1.445.154.578.231 1.359.231 2.342v7.72c0 .81.164 1.36.492 1.648.347.29.915.434 1.706.434v.607a55.745 55.745 0 0 0-1.504-.057 34.535 34.535 0 0 0-1.966-.058c-.636 0-1.263.019-1.88.058-.597.019-1.05.038-1.359.057v-.607c.694 0 1.186-.144 1.475-.434.289-.289.434-.838.434-1.648v-8.356c0-.598-.049-1.147-.145-1.648-.096-.502-.318-.906-.665-1.215-.328-.308-.839-.462-1.532-.462-.81 0-1.523.23-2.14.694-.598.462-1.07 1.098-1.417 1.908-.328.79-.492 1.677-.492 2.66v6.42c0 .809.145 1.358.434 1.647.289.29.781.434 1.475.434v.607a49.498 49.498 0 0 0-1.388-.057 28.82 28.82 0 0 0-1.851-.058c-.636 0-1.291.019-1.966.058-.675.019-1.176.038-1.503.057v-.607c.79 0 1.349-.144 1.677-.434.347-.289.52-.838.52-1.648v-9.05c0-.868-.154-1.504-.463-1.909-.308-.424-.886-.636-1.734-.636v-.607c.616.058 1.214.087 1.792.087.559 0 1.089-.029 1.591-.087.52-.077.992-.183 1.416-.318v3.412c.502-1.31 1.196-2.217 2.082-2.718.906-.52 1.851-.78 2.834-.78Zm12.576 20.732c-1.022 0-1.986-.106-2.892-.318-.906-.212-1.639-.55-2.198-1.012a2.11 2.11 0 0 1-.809-1.706c0-.674.27-1.253.809-1.735.54-.481 1.273-.848 2.198-1.098l.174.462a1.814 1.814 0 0 0-1.013.81c-.25.405-.375.858-.375 1.359 0 .887.404 1.561 1.214 2.024.829.482 1.899.723 3.21.723.867 0 1.715-.116 2.544-.347.829-.212 1.513-.578 2.053-1.099.54-.52.81-1.205.81-2.053 0-.636-.232-1.156-.694-1.561-.444-.424-1.33-.636-2.66-.636h-2.14a10.93 10.93 0 0 1-1.793-.145c-.578-.096-1.05-.299-1.417-.607-.366-.309-.549-.78-.549-1.417 0-.655.27-1.282.81-1.88.539-.616 1.532-1.243 2.978-1.879l.347.26c-.656.347-1.224.704-1.706 1.07-.482.347-.723.761-.723 1.243 0 .617.463.926 1.388.926h3.614c.81 0 1.552.115 2.227.347.694.231 1.253.597 1.677 1.099.424.5.636 1.156.636 1.966 0 .906-.289 1.754-.868 2.544-.578.79-1.445 1.427-2.602 1.909-1.137.5-2.554.751-4.25.751Zm.144-11.594c-.944 0-1.802-.155-2.573-.463a3.994 3.994 0 0 1-1.822-1.504c-.443-.674-.665-1.542-.665-2.602 0-1.06.222-1.928.665-2.602a3.821 3.821 0 0 1 1.822-1.475c.771-.328 1.629-.492 2.573-.492.964 0 1.822.164 2.574.492.771.308 1.378.8 1.821 1.475.444.674.665 1.542.665 2.602 0 1.06-.221 1.928-.665 2.602a3.991 3.991 0 0 1-1.821 1.504c-.752.308-1.61.463-2.574.463Zm0-.521c.733 0 1.301-.29 1.706-.867.424-.579.636-1.639.636-3.181s-.212-2.602-.636-3.18c-.405-.579-.973-.868-1.706-.868-.713 0-1.282.289-1.706.867-.424.579-.636 1.639-.636 3.18 0 1.543.212 2.603.636 3.182.424.578.993.867 1.706.867Zm4.164-6.217-.521-.202c.27-.656.733-1.234 1.388-1.735.656-.501 1.34-.752 2.053-.752.501 0 .906.145 1.215.434.308.27.462.684.462 1.243 0 .598-.164 1.022-.491 1.273-.309.23-.627.346-.954.346a1.3 1.3 0 0 1-.81-.289c-.251-.212-.395-.54-.434-.983-.038-.443.097-1.012.405-1.706l.376.087c-.81.308-1.388.636-1.735.983-.347.328-.665.762-.954 1.301Zm10.682-2.4c.771 0 1.427.126 1.966.376.54.25.935.482 1.186.694.636.52 1.022.174 1.156-1.04h.666a42.148 42.148 0 0 0-.087 1.937c-.02.732-.029 1.725-.029 2.978h-.665a8.896 8.896 0 0 0-.607-2.082 3.886 3.886 0 0 0-1.215-1.648c-.54-.444-1.243-.665-2.111-.665-.674 0-1.243.193-1.706.578-.443.366-.665.916-.665 1.648a2.3 2.3 0 0 0 .521 1.504c.347.405.8.79 1.359 1.156.559.347 1.166.733 1.821 1.157.733.463 1.398.935 1.996 1.417a6.066 6.066 0 0 1 1.416 1.59c.367.578.55 1.263.55 2.053 0 .887-.232 1.629-.694 2.227-.463.597-1.07 1.05-1.822 1.358-.732.309-1.542.463-2.429.463-.424 0-.829-.038-1.214-.115a5.173 5.173 0 0 1-1.07-.29 6.786 6.786 0 0 1-.607-.347c-.193-.134-.386-.28-.578-.433-.193-.154-.367-.145-.521.029-.154.154-.27.472-.347.954h-.665c.039-.617.068-1.369.087-2.256.019-.886.029-2.062.029-3.527h.665c.135 1.08.327 2.024.578 2.833.251.81.646 1.446 1.186 1.909.539.443 1.291.665 2.255.665a2.81 2.81 0 0 0 1.157-.26 2.3 2.3 0 0 0 1.012-.868c.269-.405.404-.944.404-1.619 0-.848-.308-1.542-.925-2.082-.617-.54-1.397-1.108-2.342-1.706a43.518 43.518 0 0 1-1.966-1.33 6.406 6.406 0 0 1-1.475-1.504c-.366-.559-.549-1.233-.549-2.024 0-.867.192-1.57.578-2.11a3.437 3.437 0 0 1 1.59-1.215 5.493 5.493 0 0 1 2.111-.405Z"/>
</svg>
