<svg xmlns="http://www.w3.org/2000/svg" width="25" height="21" fill="none" viewBox="0 0 25 21">
  <path fill="#fff" d="M.783 18.032c2.501.14 4.688-.444 6.821-1.992-2.154-.369-3.648-1.354-4.46-3.39.627-.086 1.18.077 1.83-.183-2.123-.931-3.498-2.328-3.552-4.742.671.054 1.18.498 1.981.433C1.455 6.253.86 4.174 2.083 1.651 4.118 3.99 6.5 5.581 9.412 6.328c.162.044.314.087.476.12.747.173 1.635.54 2.09.487.78-.098 0-.996.195-2.166.617-3.637 4.622-5.294 7.589-3.16.866.627 1.548.616 2.403.237.444-.195.899-.39 1.43-.617-.12 1.04-.921 1.613-1.56 2.382.726.162 1.31-.043 1.982-.26-.228.747-.79 1.17-1.3 1.58-.53.423-.736.867-.758 1.56-.324 10.49-12.244 18.6-20.396 12.147-.79-.628-.022 0-.78-.607Z"/>
</svg>
