<svg xmlns="http://www.w3.org/2000/svg" width="108" height="28" fill="none" viewBox="0 0 108 28">
  <path fill="#fff" d="M1.389 27.363a.724.724 0 1 1 0-1.448h9.944c.698-.067 1.391-.069 2.088-.07.852-.002 1.712-.004 2.57-.14 1.014-.159 1.962-.392 2.833-.807-.394-.642-.695-1.418-.87-2.348-.232-1.22.008-2.567.517-3.612.284-.58.66-1.083 1.095-1.436.494-.402 1.063-.614 1.672-.558.483.046.963.26 1.417.677.929.856 1.26 1.863 1.207 2.885-.061 1.17-.646 2.334-1.402 3.275a8.973 8.973 0 0 1-1.42 1.426c.28.2.585.354.91.466.678.238 1.574.27 2.501.187a15.125 15.125 0 0 0 3.478-.766 8.734 8.734 0 0 0 2.399-1.267 10.408 10.408 0 0 1-.478-1.05c-.371-.954-.651-2.073-.83-3.377-.325-2.375.157-5.073 1.03-6.851.344-.706.76-1.285 1.224-1.669.56-.463 1.182-.662 1.846-.512.53.122 1.05.47 1.534 1.095 1.046 1.348 1.422 2.915 1.362 4.493-.07 1.872-.754 3.755-1.644 5.293-.68 1.176-1.4 2.108-2.161 2.855.07.09.143.177.215.26.443.503.88.85 1.352 1.082.48.236 1.018.364 1.659.429 1.771.177 3.402-.362 4.92-1.51.392-.298.776-.634 1.154-1.009a11.48 11.48 0 0 1-.302-.553c-.726-1.422-1.272-3.22-1.575-5.436-.403-2.96.196-6.32 1.282-8.533.425-.866.934-1.574 1.496-2.043.659-.547 1.391-.784 2.166-.606.626.144 1.245.562 1.827 1.312 1.288 1.66 1.75 3.59 1.678 5.536-.088 2.325-.941 4.672-2.047 6.592-.858 1.49-1.753 2.792-2.694 3.88a6.4 6.4 0 0 0 1.674 1.56 5.202 5.202 0 0 0 2.904.8 5.52 5.52 0 0 0 2.936-.944c.892-.597 1.757-1.46 2.597-2.562a15.787 15.787 0 0 1-.181-.39c-.845-1.897-1.48-4.381-1.817-7.546-.237-2.227-.13-4.627.218-6.8.368-2.303 1.013-4.369 1.815-5.731.394-.673.875-1.193 1.406-1.515A2.473 2.473 0 0 1 56.11.001a2.35 2.35 0 0 1 1.272.34c.482.282.94.751 1.354 1.43 1.259 2.075 1.659 4.47 1.536 6.893-.155 3.024-1.129 6.087-2.254 8.59-.912 2.025-1.865 3.78-2.868 5.228.719 1.249 1.552 2.102 2.455 2.62 1.107.636 2.345.728 3.61.424 1.37-.33 2.775-1.12 4.094-2.2a12.001 12.001 0 0 1-.729-1.497c-.507-1.24-.893-2.721-1.13-4.462-.404-2.96.195-6.32 1.28-8.532.426-.867.934-1.575 1.497-2.044.659-.546 1.391-.783 2.166-.605.626.143 1.245.56 1.827 1.311 1.288 1.66 1.75 3.59 1.677 5.537-.087 2.324-.94 4.671-2.046 6.59-.508.885-1.027 1.7-1.56 2.44-.372.517-.748.999-1.134 1.444.167.219.339.42.517.606 1.024 1.07 2.211 1.567 3.454 1.67 1.537.126 3.175-.34 4.712-1.084a8.32 8.32 0 0 0 1.395-.852 10.23 10.23 0 0 1-.549-1.241c-.334-.91-.593-1.976-.761-3.206-.325-2.376.157-5.074 1.03-6.852.345-.706.761-1.284 1.225-1.668.559-.464 1.181-.662 1.845-.512.53.121 1.05.47 1.534 1.095 1.046 1.346 1.419 2.91 1.361 4.487-.07 1.87-.756 3.755-1.64 5.296-.683 1.187-1.407 2.128-2.168 2.881l.047.06c.79 1 1.648 1.462 2.57 1.586.98.132 2.078-.094 3.263-.46.367-.115.724-.25 1.07-.414-.395-.64-.694-1.418-.87-2.348-.233-1.219.007-2.567.516-3.611.284-.581.66-1.084 1.095-1.437.494-.401 1.063-.613 1.672-.557.484.045.963.259 1.417.677.929.856 1.26 1.862 1.207 2.884-.061 1.171-.646 2.334-1.402 3.276a8.919 8.919 0 0 1-1.422 1.425c.673.48 1.498.699 2.374.72.116 0 1.586.003 2.79 0a86.328 86.328 0 0 0 1.529-.008c.014-.002.03-.002.045-.002v-.001h11.598a.724.724 0 1 1 0 1.448H95.013v-.002c-.185.004-.829.008-1.575.008-1.213.001-2.7 0-2.816-.002-1.34-.029-2.604-.429-3.605-1.323l-.01-.008a9.042 9.042 0 0 1-1.588.654c-1.362.422-2.65.678-3.88.512-1.284-.173-2.457-.79-3.51-2.124l-.01-.015a9.72 9.72 0 0 1-1.552.936c-1.748.846-3.637 1.375-5.452 1.225-1.576-.129-3.082-.76-4.38-2.117a9.15 9.15 0 0 1-.515-.589c-1.45 1.17-3.017 2.03-4.576 2.404-1.613.39-3.211.26-4.66-.57-.981-.563-1.884-1.426-2.67-2.634-.817.997-1.668 1.8-2.556 2.395a6.968 6.968 0 0 1-3.711 1.189 6.623 6.623 0 0 1-3.703-1.023 7.748 7.748 0 0 1-1.91-1.72c-.364.349-.735.668-1.111.952-1.81 1.37-3.774 2.008-5.931 1.793-.807-.08-1.504-.252-2.15-.57-.655-.32-1.236-.776-1.804-1.422a5.553 5.553 0 0 1-.23-.278 10.263 10.263 0 0 1-2.712 1.414c-1.03.361-2.446.714-3.826.84-1.113.099-2.213.05-3.103-.261a4.982 4.982 0 0 1-1.705-.999c-.08.042-.159.083-.239.121-1.04.51-2.143.787-3.316.972-.965.15-1.88.153-2.79.155-.654.001-1.301.004-1.947.065a.727.727 0 0 1-.129.01H1.384l.005.009Zm18.663-3.22a7.598 7.598 0 0 0 1.278-1.266c.588-.733 1.042-1.607 1.086-2.443.032-.614-.172-1.222-.742-1.748-.21-.194-.402-.288-.572-.304h-.004c-.204-.02-.42.073-.626.241-.266.215-.508.549-.704.95-.387.793-.57 1.806-.398 2.712.143.75.376 1.365.682 1.86v-.001Zm11.386-1.313c.585-.619 1.148-1.375 1.685-2.305.785-1.359 1.39-3.007 1.45-4.62.047-1.263-.246-2.505-1.062-3.56-.264-.34-.503-.521-.715-.568-.188-.043-.392.038-.603.212-.303.251-.593.668-.851 1.194-.762 1.553-1.18 3.924-.894 6.025.161 1.189.414 2.198.745 3.049.078.199.16.39.246.573Zm11.099-.606c.778-.944 1.527-2.055 2.25-3.314 1-1.743 1.777-3.854 1.853-5.925.062-1.631-.316-3.238-1.376-4.605-.362-.466-.7-.716-1.008-.786-.299-.07-.614.049-.923.306-.404.334-.787.881-1.124 1.569-.976 1.986-1.51 5.023-1.145 7.708.277 2.04.776 3.682 1.433 4.972l.04.078v-.003Zm11.882-1.252c.787-1.234 1.547-2.677 2.282-4.313 1.065-2.366 1.986-5.252 2.131-8.07.111-2.158-.233-4.275-1.325-6.073-.28-.464-.569-.767-.85-.933a.92.92 0 0 0-.504-.14 1.068 1.068 0 0 0-.51.166c-.322.196-.633.543-.908 1.012-.711 1.209-1.292 3.096-1.634 5.229-.33 2.054-.431 4.32-.206 6.421.297 2.783.825 4.992 1.523 6.702h.001Zm11.934 1.254c.26-.316.518-.65.771-1.004.507-.703 1-1.478 1.482-2.314 1-1.742 1.777-3.854 1.853-5.924.062-1.632-.316-3.239-1.377-4.605-.361-.467-.7-.716-1.007-.787-.299-.069-.614.05-.924.306-.403.335-.786.882-1.123 1.57-.976 1.985-1.511 5.022-1.145 7.707.219 1.609.575 2.971 1.04 4.111.136.334.28.646.433.941h-.003Zm11.999.62c.586-.623 1.147-1.385 1.682-2.319.784-1.362 1.39-3.015 1.45-4.628.047-1.261-.245-2.502-1.06-3.554-.265-.34-.504-.521-.716-.568-.187-.043-.392.038-.602.212-.304.251-.594.668-.852 1.194-.762 1.553-1.18 3.924-.894 6.025.152 1.118.386 2.08.688 2.902.096.26.197.505.303.734v.001Zm8.947 1.299a7.613 7.613 0 0 0 1.277-1.269c.588-.733 1.042-1.607 1.086-2.443.032-.613-.172-1.221-.742-1.748-.21-.194-.402-.287-.572-.303h-.004c-.204-.02-.42.072-.626.24-.266.216-.508.549-.704.95-.386.793-.57 1.806-.398 2.713.143.748.377 1.364.683 1.86Z"/>
</svg>
